<?xml version="1.0" encoding="UTF-8"?>
<svg id="Layer_1" data-name="Layer 1" xmlns="http://www.w3.org/2000/svg" version="1.1" viewBox="0 0 64.35 20.41">
  <defs>
    <style>
      .cls-1 {
        fill: none;
      }

      .cls-1, .cls-2 {
        stroke-width: 0px;
      }

      .cls-2 {
        fill: #000;
      }
    </style>
  </defs>
  <g>
    <g>
      <path class="cls-2" d="M38.31.29h-12.22v12.22h12.22V.29ZM38.18,12.38h-11.97V.41h11.97v11.97Z"/>
      <g>
        <path class="cls-2" d="M29.13,9.88l.1-.31c.01-.05.03-.11.04-.19.01.07.03.13.04.19l.1.31h-.29ZM29.02,8.97l-.55,1.46h.49l.06-.19h.51l.06.19h.49l-.54-1.46h-.52Z"/>
        <polygon class="cls-2" points="30.67 8.97 30.18 8.97 30.18 10.43 31.29 10.43 31.29 10 30.67 10 30.67 8.97"/>
        <path class="cls-2" d="M32.04,10.02h-.14v-.65h.14c.17,0,.28.09.28.33s-.1.33-.28.33M32.06,8.97h-.63v1.46h.63c.52,0,.76-.3.76-.73s-.23-.73-.76-.73"/>
        <path class="cls-2" d="M33.45,9.88l.1-.31c.01-.05.03-.11.04-.19.01.07.03.13.04.19l.1.31h-.29ZM33.33,8.97l-.55,1.46h.49l.06-.19h.51l.06.19h.49l-.54-1.46h-.52Z"/>
        <path class="cls-2" d="M35.17,9.63h-.19v-.28h.19c.09,0,.15.06.15.14s-.05.14-.15.14M35.55,9.92c.15-.07.25-.21.25-.44,0-.4-.31-.52-.62-.52h-.68v1.46h.48v-.43h.11l.3.43h.53l-.38-.51Z"/>
        <rect class="cls-2" x="34.4" y="2.24" width="1.48" height="2.71"/>
        <path class="cls-2" d="M34.94,7.08c0,.24-.21.24-.34.24h-.69v1.2h1.97v-2.33s-.28-.56-.95-1.02l-.88.87s.89.46.89,1.04"/>
        <path class="cls-2" d="M30.51,4.21c0-.79.51-1.35.51-1.35l1.01.57c-.48.61-.38,1.24.18,1.24s.54-.51.54-.57v-1.85h1.2v1.94c0,.84-.68,1.71-1.73,1.71-.94,0-1.71-.77-1.71-1.68"/>
        <path class="cls-2" d="M30.55,5.38h-.52v.58c0,1.31-.72,1.43-1.14,1.42h-.39v1.14h1.93c.67-.47,1.02-1.27,1.07-2.41-.39-.14-.72-.4-.95-.73"/>
        <path class="cls-2" d="M32.22,6.23c-.08,0-.16,0-.25-.01v2.3h1.48v-2.69c-.34.26-.77.41-1.23.41"/>
      </g>
    </g>
    <rect class="cls-1" x="23.15" y="-2.61" width="18.05" height="18.05"/>
  </g>
  <g>
    <path class="cls-2" d="M1.45,15.6v4.57H.34v-4.57h1.11Z"/>
    <path class="cls-2" d="M8.66,15.6v4.57h-1.11v-2.74l-1.02,2.74h-.9l-1.03-2.74v2.74h-1.11v-4.57h1.31l1.28,3.16,1.27-3.16h1.31Z"/>
    <path class="cls-2" d="M13.53,19.36h-1.7l-.27.81h-1.16l1.65-4.57h1.29l1.65,4.57h-1.18l-.27-.81ZM13.24,18.5l-.57-1.67-.56,1.67h1.12Z"/>
    <path class="cls-2" d="M19.74,17.05c-.08-.15-.2-.27-.35-.35-.15-.08-.33-.12-.54-.12-.36,0-.65.12-.86.35-.22.24-.33.55-.33.95,0,.42.11.75.34.99s.54.35.94.35c.27,0,.5-.07.69-.21s.33-.34.41-.6h-1.41v-.82h2.42v1.03c-.08.28-.22.54-.42.77-.2.24-.45.43-.75.58s-.65.22-1.03.22c-.45,0-.85-.1-1.21-.3-.35-.2-.63-.47-.83-.82-.2-.35-.3-.75-.3-1.2s.1-.85.3-1.21.47-.63.82-.83c.35-.2.75-.3,1.2-.3.55,0,1.01.13,1.38.4s.62.63.75,1.1h-1.23Z"/>
    <path class="cls-2" d="M24.01,16.49v.92h1.49v.86h-1.49v1h1.68v.89h-2.8v-4.57h2.8v.89h-1.68Z"/>
    <path class="cls-2" d="M31.36,19.31h1.46v.86h-2.57v-4.57h1.11v3.71Z"/>
    <path class="cls-2" d="M35.69,15.6v4.57h-1.11v-4.57h1.11Z"/>
    <path class="cls-2" d="M41.13,18.22c.16.21.24.44.24.71,0,.38-.13.68-.4.91s-.64.33-1.12.33h-2.13v-4.57h2.05c.46,0,.83.11,1.09.32.26.21.39.5.39.86,0,.27-.07.49-.21.67s-.33.3-.56.37c.26.06.48.19.64.39ZM38.84,17.45h.73c.18,0,.32-.04.42-.12.1-.08.15-.2.15-.35s-.05-.27-.15-.36-.24-.12-.42-.12h-.73v.96ZM40.09,19.14c.1-.08.15-.21.15-.37s-.05-.29-.16-.38c-.11-.09-.25-.14-.44-.14h-.81v1.01h.82c.19,0,.33-.04.43-.13Z"/>
    <path class="cls-2" d="M45.57,20.17l-.95-1.72h-.27v1.72h-1.11v-4.57h1.87c.36,0,.67.06.92.19.25.13.44.3.57.52.13.22.19.46.19.73,0,.3-.08.57-.26.81-.17.24-.42.41-.76.51l1.05,1.81h-1.25ZM44.36,17.66h.69c.2,0,.36-.05.46-.15.1-.1.15-.24.15-.42s-.05-.31-.15-.41c-.1-.1-.25-.15-.46-.15h-.69v1.13Z"/>
    <path class="cls-2" d="M51.56,19.36h-1.7l-.27.81h-1.16l1.65-4.57h1.29l1.65,4.57h-1.18l-.27-.81ZM51.27,18.5l-.57-1.67-.56,1.67h1.12Z"/>
    <path class="cls-2" d="M57.06,20.17l-.95-1.72h-.27v1.72h-1.11v-4.57h1.87c.36,0,.67.06.92.19.25.13.44.3.57.52.13.22.19.46.19.73,0,.3-.08.57-.26.81-.17.24-.42.41-.76.51l1.05,1.81h-1.25ZM55.85,17.66h.69c.2,0,.36-.05.46-.15.1-.1.15-.24.15-.42s-.05-.31-.15-.41c-.1-.1-.25-.15-.46-.15h-.69v1.13Z"/>
    <path class="cls-2" d="M64.12,15.6l-1.58,3.06v1.51h-1.11v-1.51l-1.58-3.06h1.26l.88,1.91.88-1.91h1.25Z"/>
  </g>
</svg>